<?xml version="1.0" encoding="UTF-8" standalone="no"?>
<svg
   xmlns:dc="http://purl.org/dc/elements/1.1/"
   xmlns:cc="http://creativecommons.org/ns#"
   xmlns:rdf="http://www.w3.org/1999/02/22-rdf-syntax-ns#"
   xmlns:svg="http://www.w3.org/2000/svg"
   xmlns="http://www.w3.org/2000/svg"
   version="1.1"
   id="svg2"
   viewBox="0 0 22 22"
   height="19"
   width="26">
  <defs
     id="defs4" />
  <metadata
     id="metadata7">
    <rdf:RDF>
      <cc:Work
         rdf:about="">
        <dc:format>image/svg+xml</dc:format>
        <dc:type
           rdf:resource="http://purl.org/dc/dcmitype/StillImage" />
        <dc:title></dc:title>
      </cc:Work>
    </rdf:RDF>
  </metadata>
  <g
     transform="translate(0,-1027.3622)"
     id="layer1">
    <path
       id="path4146"
       d="M 0.02767225,1041.9733 C 13.489912,1028.1672 13.489912,1028.1672 13.489912,1028.1672 l 0,0"
       style="fill:#FFFFFF;fill-rule:evenodd;stroke:#ac9393;stroke-width:0.49781054px;stroke-linecap:butt;stroke-linejoin:miter;stroke-opacity:1" />
    <path
       id="path4150"
       d="m 13.489912,1028.1672 c 13.46224,13.8061 13.46224,13.8061 13.46224,13.8061 l 0,0"
       style="fill:#FFFFFF;fill-rule:evenodd;stroke:#916f6f;stroke-width:0.49781054px;stroke-linecap:butt;stroke-linejoin:miter;stroke-opacity:1" />
    <path
       id="path4152"
       d="m 2.7201197,1039.6723 c 0,11.5051 0,11.5051 0,11.5051"
       style="fill:#FFFFFF;fill-rule:evenodd;stroke:#916f6f;stroke-width:0.49781054px;stroke-linecap:butt;stroke-linejoin:miter;stroke-opacity:1" />
    <path
       id="path4154"
       d="m 24.259704,1039.6723 c 0,11.5051 0,11.5051 0,11.5051"
       style="fill:#FFFFFF;fill-rule:evenodd;stroke:#916f6f;stroke-width:0.49781054px;stroke-linecap:butt;stroke-linejoin:miter;stroke-opacity:1" />
    <path
       id="path4156"
       d="m 2.7201197,1051.1774 c 21.5395843,0 21.5395843,0 21.5395843,0"
       style="fill:#FFFFFF;fill-rule:evenodd;stroke:#916f6f;stroke-width:0.49781054px;stroke-linecap:butt;stroke-linejoin:miter;stroke-opacity:1" />
    <path
       id="path4158"
       d="m 3.0384748,1045.2511 c 0,-3.7037 -0.046902,-5.6366 -0.136841,-5.6366 -0.075265,0 2.2613871,-2.4592 5.1925638,-5.4649 2.9311764,-3.0057 5.3727094,-5.4506 5.4256214,-5.4332 0.05293,0.018 2.443586,2.4398 5.312599,5.3831 l 5.216387,5.3515 -0.03651,5.7184 -0.03651,5.7184 -10.468637,0 -10.4686419,0 0,-5.6367 z"
       style="fill:#FFFFFF;fill-opacity:1;stroke:#ac9393;stroke-width:0.12571615;stroke-opacity:0.23668638" />
    <path
       id="path4140"
       d="m 3.1305673,1050.8092 c -0.017609,-0.015 -0.032686,-2.2108 -0.033494,-4.8794 -5.385e-4,-2.6686 -0.021217,-5.1849 -0.045449,-5.5916 -0.038394,-0.6451 -0.034356,-0.7523 0.031394,-0.8384 0.3975077,-0.5205 7.0573587,-7.3778 9.6767387,-9.9636 l 0.744516,-0.7349 0.188417,0.1802 c 0.436958,0.4181 2.734047,2.7551 6.38401,6.4951 l 3.895025,3.9911 -0.03118,5.6331 c -0.01718,3.0982 -0.03963,5.6562 -0.04997,5.6844 -0.01492,0.041 -2.131746,0.051 -10.373378,0.051 -5.6950339,0 -10.3690322,-0.012 -10.3866624,-0.028 z"
       style="fill:#FFFFFF;fill-opacity:1;stroke:#b19494;stroke-width:0.04444737;stroke-opacity:0.23668638" />
    <path
       id="path4142"
       d="m 6.5018623,1050.8058 -3.3518071,-0.011 -0.015024,-1.4892 c -0.00829,-0.8191 -0.01987,-3.0239 -0.025794,-4.8997 -0.00592,-1.8757 -0.02434,-3.734 -0.040979,-4.1295 l -0.030263,-0.7191 0.9182702,-0.9751 c 2.0670516,-2.195 6.9797616,-7.2233 9.0656126,-9.2789 l 0.48163,-0.4746 0.201385,0.1938 c 0.49506,0.4764 4.73845,4.8006 8.948012,9.1185 l 1.303145,1.3367 -0.02046,3.8817 c -0.01125,2.135 -0.03333,4.6784 -0.04911,5.6521 l -0.0287,1.7705 -3.420126,0.027 c -3.181795,0.025 -5.165952,0.025 -13.9357719,0 l 0,0 z"
       style="fill:#FFFFFF;fill-opacity:1;stroke:#916f6f;stroke-width:0.04444737;stroke-opacity:0.23668638" />
  </g>
</svg>
